<svg width="114" height="30" viewBox="0 0 114 30" fill="none" xmlns="http://www.w3.org/2000/svg">
<path d="M13.48 28V28.64H0.2V28H2.76V1.64H0.2V0.999998H22.88V10.52H22.24C22.24 7.53333 21.6133 5.30667 20.36 3.84C19.1333 2.37333 16.9867 1.64 13.92 1.64H10.92V13.96H12.8C16.32 13.96 18.08 12.0533 18.08 8.24H18.72V20.44H18.08C18.08 18.52 17.6 17.0667 16.64 16.08C15.7067 15.0933 14.3733 14.6 12.64 14.6H10.92V28H13.48ZM44.0781 28.52C42.5315 29.1067 40.8381 29.4 38.9981 29.4C37.1581 29.4 35.4648 29.12 33.9181 28.56C32.3715 27.9733 31.0648 27.2133 29.9981 26.28C28.9581 25.32 28.0781 24.2 27.3581 22.92C25.9715 20.4933 25.2781 17.76 25.2781 14.72C25.2781 11.1467 26.3581 7.90667 28.5181 5C29.5848 3.58666 31.0248 2.44 32.8381 1.56C34.6515 0.679998 36.7048 0.239998 38.9981 0.239998C41.2915 0.239998 43.3448 0.666665 45.1581 1.52C46.9715 2.34667 48.4115 3.45333 49.4781 4.84C51.6381 7.69333 52.7181 10.9867 52.7181 14.72C52.7181 17.76 52.0248 20.4933 50.6381 22.92C49.1181 25.6133 46.9315 27.48 44.0781 28.52ZM36.3181 27.52C36.9848 28.2667 37.8781 28.64 38.9981 28.64C40.1181 28.64 41.0115 28.2667 41.6781 27.52C42.3448 26.7467 42.8648 25.3333 43.2381 23.28C43.6381 21.2 43.8381 18.3467 43.8381 14.72C43.8381 11.0933 43.6381 8.26667 43.2381 6.24C42.8648 4.18667 42.3448 2.8 41.6781 2.08C41.0115 1.36 40.1181 0.999998 38.9981 0.999998C37.8781 0.999998 36.9848 1.36 36.3181 2.08C35.6515 2.8 35.1181 4.18667 34.7181 6.24C34.3448 8.26667 34.1581 11.0933 34.1581 14.72C34.1581 18.3467 34.3448 21.2 34.7181 23.28C35.1181 25.3333 35.6515 26.7467 36.3181 27.52ZM73.9219 28.52C72.3752 29.1067 70.6819 29.4 68.8419 29.4C67.0019 29.4 65.3085 29.12 63.7619 28.56C62.2152 27.9733 60.9085 27.2133 59.8419 26.28C58.8019 25.32 57.9219 24.2 57.2019 22.92C55.8152 20.4933 55.1219 17.76 55.1219 14.72C55.1219 11.1467 56.2019 7.90667 58.3619 5C59.4285 3.58666 60.8685 2.44 62.6819 1.56C64.4952 0.679998 66.5485 0.239998 68.8419 0.239998C71.1352 0.239998 73.1885 0.666665 75.0019 1.52C76.8152 2.34667 78.2552 3.45333 79.3219 4.84C81.4819 7.69333 82.5619 10.9867 82.5619 14.72C82.5619 17.76 81.8685 20.4933 80.4819 22.92C78.9619 25.6133 76.7752 27.48 73.9219 28.52ZM66.1619 27.52C66.8285 28.2667 67.7219 28.64 68.8419 28.64C69.9619 28.64 70.8552 28.2667 71.5219 27.52C72.1885 26.7467 72.7085 25.3333 73.0819 23.28C73.4819 21.2 73.6819 18.3467 73.6819 14.72C73.6819 11.0933 73.4819 8.26667 73.0819 6.24C72.7085 4.18667 72.1885 2.8 71.5219 2.08C70.8552 1.36 69.9619 0.999998 68.8419 0.999998C67.7219 0.999998 66.8285 1.36 66.1619 2.08C65.4952 2.8 64.9619 4.18667 64.5619 6.24C64.1885 8.26667 64.0019 11.0933 64.0019 14.72C64.0019 18.3467 64.1885 21.2 64.5619 23.28C64.9619 25.3333 65.4952 26.7467 66.1619 27.52ZM95.8056 28H97.1256C99.5256 28 101.312 26.9867 102.486 24.96C103.659 22.9067 104.246 19.4533 104.246 14.6C104.246 9.74667 103.646 6.38666 102.446 4.52C101.272 2.62667 99.5923 1.68 97.4056 1.68H95.8056V28ZM97.9256 28.64H85.0856V28H87.6456V1.68H85.0856V0.999998H97.5256C102.939 0.999998 106.886 2.21333 109.366 4.64C111.872 7.04 113.126 10.32 113.126 14.48C113.126 18.56 111.979 21.88 109.686 24.44C108.512 25.7733 106.926 26.8133 104.926 27.56C102.926 28.28 100.592 28.64 97.9256 28.64Z" fill="#333333"/>
</svg>
