<svg width="128" height="128" viewBox="0 0 128 128" fill="none" xmlns="http://www.w3.org/2000/svg">
<path d="M64 128C99.3462 128 128 99.3462 128 64C128 28.6538 99.3462 0 64 0C28.6538 0 0 28.6538 0 64C0 99.3462 28.6538 128 64 128Z" fill="white"/>
<path fill-rule="evenodd" clip-rule="evenodd" d="M86 64.0003C86 59.9754 83.2749 56.4692 79.4765 55.3625C79.0804 51.0268 75.3942 47.6178 70.9202 47.6178C70.5305 47.6178 70.1431 47.6454 69.7598 47.697C69.012 45.9821 67.5075 44.6656 65.6659 44.1618C66.0846 41.9159 67.3214 41.2092 68.0997 40.9887C68.9156 40.7577 69.388 39.9144 69.1549 39.1054C68.9218 38.2965 68.0716 37.8277 67.2556 38.0591C65.4455 38.5719 64.0628 39.8086 63.257 41.6354C62.8861 42.4762 62.6813 43.3385 62.5707 44.1023C60.638 44.5509 59.0469 45.8872 58.2604 47.6532C58.0023 47.63 57.743 47.6178 57.4832 47.6178C53.0472 47.6178 49.3855 50.9689 48.9377 55.2522C47.2103 55.6662 45.6369 56.5774 44.4107 57.8922C42.8562 59.5592 42 61.7284 42 64.0003C42 67.6154 44.1604 70.7391 47.268 72.1701L50.2986 84.8775C51.018 87.8936 53.7033 90 56.8287 90H71.1711C74.2966 90 76.9818 87.8936 77.7012 84.8775L80.7319 72.1701C83.8396 70.739 86 67.6154 86 64.0003ZM64 46.9843C65.7642 46.9843 67.1995 48.4076 67.1995 50.1569C67.1995 51.9062 65.7641 53.3294 64 53.3294C62.2358 53.3294 60.8005 51.9062 60.8005 50.1569C60.8005 48.4076 62.2359 46.9843 64 46.9843ZM50.6214 72.9912L53.2889 84.1763C53.6788 85.8112 55.1346 86.9532 56.8288 86.9531H56.9391L53.5324 72.669C52.7456 72.8864 51.9224 73.0026 51.0788 73.0026C50.9255 73.0026 50.773 72.9987 50.6214 72.9912ZM65.523 86.9531V72.8492C67.3777 72.5046 69.0838 71.5916 70.3932 70.2511C70.775 70.642 71.1908 70.9962 71.6341 71.3111L67.9036 86.9531H65.523ZM60.0965 86.9532H62.4503V72.8932C60.5566 72.6009 58.8217 71.7277 57.472 70.3948C57.1281 70.7343 56.7583 71.0422 56.3682 71.3202L60.0965 86.9532ZM74.7111 84.1763C74.3212 85.8113 72.8654 86.9532 71.1712 86.9532H71.0609L74.4686 72.6646C75.2579 72.8858 76.0822 73.0027 76.9212 73.0027C77.0746 73.0027 77.2271 72.9988 77.3787 72.9913L74.7111 84.1763ZM71.7223 66.9804C72.7953 68.8157 74.7873 69.9557 76.9213 69.9557C80.2331 69.9557 82.9273 67.2842 82.9272 64.0001C82.9272 61.041 80.7011 58.5055 77.7491 58.1026C76.9514 57.9937 76.3738 57.2925 76.4255 56.4956C76.4346 56.3548 76.4389 56.2409 76.4389 56.1369C76.4389 53.1194 73.9632 50.6646 70.9201 50.6646C70.6939 50.6646 70.4691 50.6785 70.2464 50.7055C69.9651 53.8787 67.2719 56.3762 64 56.3762C60.7169 56.3762 58.0167 53.8615 57.7511 50.673C57.6618 50.6687 57.5725 50.6646 57.4831 50.6646C54.44 50.6646 51.9643 53.1194 51.9643 56.1369C51.9643 56.2334 51.9678 56.3393 51.975 56.461C52.0235 57.286 51.3999 57.9988 50.5694 58.0678C49.0753 58.192 47.6892 58.8641 46.6667 59.9607C45.6388 61.0628 45.0727 62.4975 45.0727 64.0001C45.0727 67.284 47.767 69.9556 51.0788 69.9556C52.0535 69.9556 52.9894 69.726 53.8228 69.3017C53.8721 69.2721 53.9231 69.2447 53.9762 69.2205C54.8561 68.7399 55.6137 68.0381 56.1704 67.1577C56.4514 66.7134 56.943 66.4436 57.472 66.4436C58.0009 66.4436 58.4925 66.7134 58.7735 67.1577C59.8815 68.9098 61.7849 69.9557 63.865 69.9557C65.999 69.9557 67.991 68.8156 69.064 66.9804C69.3388 66.5103 69.8452 66.2209 70.3932 66.2209C70.9411 66.2209 71.4475 66.5103 71.7223 66.9804Z" fill="#EDA42D"/>
</svg>
