<svg width="128" height="128" viewBox="0 0 128 128" fill="none" xmlns="http://www.w3.org/2000/svg">
<path d="M64 128C99.3462 128 128 99.3462 128 64C128 28.6538 99.3462 0 64 0C28.6538 0 0 28.6538 0 64C0 99.3462 28.6538 128 64 128Z" fill="white"/>
<path fill-rule="evenodd" clip-rule="evenodd" d="M90 60.8506C90 60.0093 89.3179 59.3272 88.4766 59.3272H83.8483C83.1062 49.6191 75.3333 41.8467 65.625 41.1061V39.5234C65.625 38.6821 64.9429 38 64.1016 38C63.2602 38 62.5781 38.6821 62.5781 39.5234V41.1002C55.6876 41.5634 51.404 45.1147 48.9794 48.1275C46.4304 51.295 44.7344 55.4641 44.3709 59.3272H39.5234C38.6821 59.3272 38 60.0093 38 60.8506C38 62.8863 38.8371 64.8075 40.3571 66.2605C41.8459 67.6838 43.7861 68.4675 45.8203 68.4675H53.4727C52.1279 69.1617 50.642 69.9848 49.0004 70.9424C46.4907 72.4064 45.6277 74.4754 44.6285 76.8709L44.6284 76.8711L44.6282 76.8716C43.9487 78.5008 43.1785 80.3473 41.7153 82.542C40.9526 83.6859 41.8909 84.6959 42.7605 85.5162C43.8732 86.5656 45.7815 88.106 46.9872 89.0207C47.0182 89.0442 47.0489 89.0676 47.0791 89.0906C47.1034 89.1091 47.1273 89.1274 47.1511 89.1455L47.1549 89.1484L47.1552 89.1487C47.801 89.6416 48.2705 90 48.8679 90C49.3171 90 49.6995 89.7966 49.9444 89.5515C51.7263 87.7699 54.0148 86.748 56.223 86.748H62.5542C65.5734 86.748 68.4631 85.4607 70.4771 83.2219L82.6392 69.8393C82.9946 69.4482 83.1081 68.9208 82.9872 68.4413C86.9055 68.132 90 64.8469 90 60.8506ZM64.1044 44.095C72.8295 44.095 80.0171 50.7995 80.7894 59.3272H47.4297C48.153 52.6895 53.5034 44.095 64.1044 44.095ZM72.6111 68.4675H65.5578C65.6745 68.8833 65.6936 69.2641 65.6679 69.5846C65.514 71.5197 63.6721 73.0714 61.2892 74.561H66.5173L72.6111 68.4675ZM70.4722 78.6971L68.2171 81.1785C66.7748 82.7817 64.7107 83.7013 62.5542 83.7013H56.223C53.6042 83.7013 50.9372 84.7209 48.7414 86.5325C47.6228 85.6777 45.7838 84.1801 44.8462 83.3012C46.0992 81.2598 46.8343 79.4972 47.4404 78.0439C48.3562 75.8482 48.909 74.5229 50.5357 73.5741C53.3659 71.9232 55.6575 70.7188 57.5413 69.8922C60.969 68.3882 61.9785 68.6263 62.096 68.6643C62.4777 68.9744 62.6398 69.2278 62.6306 69.3431C62.6261 69.4001 62.5451 69.931 61.1172 71.002C59.9883 71.8488 58.4427 72.7244 56.8886 73.6048L56.8886 73.6049C56.2008 73.9945 55.5113 74.3851 54.8555 74.7746C54.2656 75.1249 53.9828 75.8262 54.1645 76.4877C54.3462 77.1492 54.9475 77.6077 55.6335 77.6077H67.1483C67.5524 77.6077 67.9398 77.4471 68.2255 77.1614L75.4953 69.8919C76.8804 68.5068 78.0271 68.2013 79.3071 68.9753L70.4722 78.6971ZM45.8203 65.4208H82.3828C84.369 65.4208 86.0633 64.127 86.692 62.3537H41.3306C42.0026 64.1088 43.7874 65.4208 45.8203 65.4208Z" fill="#5DC4B8"/>
</svg>
