<svg width="128" height="128" viewBox="0 0 128 128" fill="none" xmlns="http://www.w3.org/2000/svg">
<path d="M64 128C99.3462 128 128 99.3462 128 64C128 28.6538 99.3462 0 64 0C28.6538 0 0 28.6538 0 64C0 99.3462 28.6538 128 64 128Z" fill="white"/>
<path fill-rule="evenodd" clip-rule="evenodd" d="M68.3931 46.6667C69.0171 41.7194 73.1968 38.0082 78.1541 38C83.5918 38 88 42.4346 88 47.9048C88 53.3751 83.5918 57.8096 78.1541 57.8096C76.1528 57.8105 74.1997 57.1915 72.5603 56.0366L60.9237 69.0923V87.5238H68.3081V90H51.0777V87.5237H58.4622V69.0934L40.3149 48.7317C40.1119 48.5043 39.9998 48.2093 40 47.9037C40.0005 47.2199 40.552 46.6661 41.2317 46.6667H68.3931ZM49.4531 55.2751L59.6929 66.7634L69.9302 55.2751H49.4531ZM72.0004 52.945V52.7989H47.2464L43.9885 49.1429H69.5388H75.3947L72.0004 52.945ZM74.2157 54.1819C75.3924 54.9359 76.759 55.3354 78.1541 55.3333C81.7571 55.3328 84.8337 52.7167 85.4341 49.1429C86.1138 45.0975 83.405 41.2639 79.3837 40.5802C75.3624 39.8964 71.5514 42.6214 70.8717 46.6667H78.1541C78.4603 46.6655 78.7559 46.7793 78.9832 46.9857C79.4879 47.4438 79.5277 48.2267 79.0723 48.7343L74.2157 54.1819Z" fill="#EF633E"/>
</svg>
