<svg width="128" height="128" viewBox="0 0 128 128" fill="none" xmlns="http://www.w3.org/2000/svg">
<path d="M64 128C99.3462 128 128 99.3462 128 64C128 28.6538 99.3462 0 64 0C28.6538 0 0 28.6538 0 64C0 99.3462 28.6538 128 64 128Z" fill="white"/>
<path fill-rule="evenodd" clip-rule="evenodd" d="M79.4876 54.865C82.5271 54.865 85 57.3467 85 60.3973C85 63.1498 82.9864 65.4385 80.3601 65.8595C80.7589 66.6245 80.9858 67.4933 80.9858 68.4149C80.9858 71.164 78.9773 73.4502 76.3559 73.8754C76.7608 74.6451 76.9914 75.5208 76.9914 76.45C76.9914 79.1962 74.9869 81.4803 72.3696 81.909C72.7694 82.6748 72.9969 83.5449 72.9969 84.4677C72.9969 87.5182 70.524 90 67.4845 90C65.9136 90 64.4951 89.336 63.4902 88.2743C62.4851 89.336 61.0668 90 59.4958 90C56.4562 90 53.9834 87.5182 53.9834 84.4677C53.9834 83.5448 54.2109 82.6748 54.6107 81.909C51.9933 81.4804 49.9889 79.1962 49.9889 76.45C49.9889 75.5208 50.2193 74.6451 50.6243 73.8754C48.0029 73.4502 45.9945 71.1639 45.9945 68.4149C45.9945 67.492 46.2219 66.622 46.6218 65.8563C44.0044 65.4277 42 63.1435 42 60.3973C42 57.3467 44.4729 54.865 47.5124 54.865C49.0885 54.865 50.5111 55.5332 51.5167 56.6011C52.5223 55.5332 53.9449 54.865 55.521 54.865C57.0919 54.865 58.5103 55.529 59.5154 56.5907C60.1791 55.8896 61.0228 55.3628 61.9722 55.0856V51.2634C61.4007 51.491 60.7946 51.6054 60.1883 51.6054C58.954 51.6054 57.7197 51.1339 56.7801 50.1909C54.0116 47.4125 52.4525 41.364 52.2838 40.6835L51.6748 38.2261L54.1232 38.8374C54.6894 38.9788 58.9853 40.0934 61.9992 42.0753C62.2459 39.7873 64.1816 38 66.5259 38H73.6249V41.0469H66.5259C65.6889 41.0469 65.008 41.7303 65.008 42.5703V55.0743C65.9734 55.3484 66.8315 55.88 67.5042 56.5907C68.5092 55.529 69.9277 54.865 71.4987 54.865C73.0697 54.865 74.488 55.529 75.4931 56.5907C76.4982 55.529 77.9166 54.865 79.4876 54.865ZM61.0136 76.45C61.0136 77.8205 62.1246 78.9355 63.4901 78.9355C64.8556 78.9355 65.9666 77.8205 65.9666 76.45C65.9666 75.0796 64.8557 73.9645 63.4901 73.9645C62.1246 73.9645 61.0136 75.0796 61.0136 76.45ZM59.4957 65.9296C60.8612 65.9296 61.9722 67.0445 61.9722 68.415C61.9722 69.7855 60.8612 70.9005 59.4957 70.9005C58.1301 70.9005 57.0192 69.7855 57.0192 68.415C57.0192 67.0445 58.1301 65.9296 59.4957 65.9296ZM65.008 68.4149C65.008 69.7854 66.1189 70.9004 67.4845 70.9004C68.85 70.9004 69.961 69.7854 69.961 68.4149C69.961 67.0444 68.85 65.9295 67.4845 65.9295C66.1189 65.9295 65.008 67.0444 65.008 68.4149ZM71.4987 57.9119C72.8642 57.9119 73.9752 59.0269 73.9752 60.3974C73.9752 61.7679 72.8642 62.8828 71.4987 62.8828C70.1331 62.8828 69.0222 61.7679 69.0222 60.3974C69.0222 59.0269 70.1331 57.9119 71.4987 57.9119ZM58.9267 48.0365C59.6224 48.7347 60.7542 48.7343 61.4498 48.0365C62.1454 47.3384 62.1454 46.2025 61.4498 45.5042C60.272 44.3223 57.977 43.3033 56.0495 42.6155C56.736 44.5519 57.7518 46.8574 58.9267 48.0365ZM63.5098 57.9119C64.8753 57.9119 65.9863 59.0269 65.9863 60.3974C65.9863 61.7679 64.8753 62.8828 63.5098 62.8828C62.1442 62.8828 61.0333 61.7679 61.0333 60.3974C61.0333 59.0269 62.1443 57.9119 63.5098 57.9119ZM57.9975 60.3974C57.9975 59.0269 56.8865 57.9119 55.521 57.9119C54.1554 57.9119 53.0445 59.0269 53.0445 60.3974C53.0445 61.7679 54.1554 62.8828 55.521 62.8828C56.8865 62.8828 57.9975 61.7679 57.9975 60.3974ZM45.0358 60.3973C45.0358 59.0268 46.1468 57.9118 47.5123 57.9118C48.8779 57.9118 49.9888 59.0268 49.9888 60.3973C49.9888 61.7678 48.8779 62.8827 47.5123 62.8827C46.1468 62.8827 45.0358 61.7678 45.0358 60.3973ZM51.5068 65.9296C50.1412 65.9296 49.0303 67.0445 49.0303 68.415C49.0303 69.7855 50.1412 70.9005 51.5068 70.9005C52.8723 70.9005 53.9833 69.7855 53.9833 68.415C53.9833 67.0445 52.8723 65.9296 51.5068 65.9296ZM53.0247 76.45C53.0247 75.0796 54.1357 73.9645 55.5012 73.9645C56.8668 73.9645 57.9777 75.0796 57.9777 76.45C57.9777 77.8205 56.8668 78.9355 55.5012 78.9355C54.1357 78.9355 53.0247 77.8205 53.0247 76.45ZM57.0192 84.4677C57.0192 85.8382 58.1301 86.9531 59.4957 86.9531C60.8612 86.9531 61.9722 85.8382 61.9722 84.4677C61.9722 83.0972 60.8612 81.9823 59.4957 81.9823C58.1301 81.9823 57.0192 83.0972 57.0192 84.4677ZM67.4845 86.9531C66.1189 86.9531 65.008 85.8382 65.008 84.4677C65.008 83.0972 66.1189 81.9823 67.4845 81.9823C68.85 81.9823 69.961 83.0972 69.961 84.4677C69.961 85.8382 68.85 86.9531 67.4845 86.9531ZM69.0024 76.45C69.0024 77.8205 70.1134 78.9355 71.4789 78.9355C72.8445 78.9355 73.9554 77.8205 73.9554 76.45C73.9554 75.0796 72.8445 73.9645 71.4789 73.9645C70.1134 73.9645 69.0024 75.0796 69.0024 76.45ZM75.4734 70.9004C74.1078 70.9004 72.9969 69.7854 72.9969 68.4149C72.9969 67.0444 74.1078 65.9295 75.4734 65.9295C76.839 65.9295 77.9499 67.0444 77.9499 68.4149C77.9499 69.7854 76.839 70.9004 75.4734 70.9004ZM77.0111 60.3973C77.0111 61.7678 78.122 62.8827 79.4876 62.8827C80.8531 62.8827 81.9641 61.7678 81.9641 60.3973C81.9641 59.0268 80.8531 57.9118 79.4876 57.9118C78.122 57.9118 77.0111 59.0268 77.0111 60.3973Z" fill="#EF633E"/>
</svg>
